<?xml version="1.0" encoding="utf-8"?><!-- Uploaded to: SVG Repo, www.svgrepo.com, Generator: SVG Repo Mixer Tools -->
<svg width="800px" height="800px" viewBox="0 0 24 24" fill="none" xmlns="http://www.w3.org/2000/svg">
<circle cx="18.5" cy="4.5" r="2.5" stroke="#1C274C" stroke-width="1.5"/>
<path d="M9 17L7.99923 18.2009C7.262 19.0856 6.89338 19.5279 6.38945 19.764C5.88552 20 5.30973 20 4.15813 20H3" stroke="#1C274C" stroke-width="1.5" stroke-linecap="round"/>
<path d="M13.6498 21.9999C13.6498 22.4141 13.9856 22.7499 14.3998 22.7499C14.814 22.7499 15.1498 22.4141 15.1498 21.9999H13.6498ZM12.5644 16.2457L13.0173 15.6479L13.0173 15.6479L12.5644 16.2457ZM13.7488 17.261L14.336 16.7945L14.336 16.7945L13.7488 17.261ZM14.3057 18.3817L15.0322 18.1954L15.0322 18.1954L14.3057 18.3817ZM13.504 11.555C13.8105 11.2763 13.8331 10.802 13.5545 10.4955C13.2758 10.189 12.8015 10.1664 12.495 10.445L13.504 11.555ZM10.8518 13.1644L11.555 13.4252L11.555 13.4252L10.8518 13.1644ZM10.9215 14.72L10.2444 15.0426H10.2444L10.9215 14.72ZM13.6498 19.9389V21.9999H15.1498V19.9389H13.6498ZM12.1115 16.8436C12.7752 17.3463 12.9987 17.5226 13.1615 17.7276L14.336 16.7945C14.0277 16.4065 13.6187 16.1035 13.0173 15.6479L12.1115 16.8436ZM15.1498 19.9389C15.1498 19.1844 15.1554 18.6754 15.0322 18.1954L13.5793 18.5681C13.6443 18.8216 13.6498 19.1063 13.6498 19.9389H15.1498ZM13.1615 17.7276C13.3583 17.9753 13.5007 18.2617 13.5793 18.5681L15.0322 18.1954C14.9012 17.6847 14.664 17.2073 14.336 16.7945L13.1615 17.7276ZM12.495 10.445C12.0754 10.8265 11.5502 11.2813 11.141 11.6686C10.9317 11.8668 10.7312 12.0669 10.5677 12.2554C10.4192 12.4266 10.2411 12.6544 10.1486 12.9037L11.555 13.4252C11.5473 13.4461 11.5691 13.39 11.7006 13.2385C11.817 13.1044 11.9766 12.9431 12.1721 12.758C12.5726 12.3789 13.0366 11.9799 13.504 11.555L12.495 10.445ZM13.0173 15.6479C12.5298 15.2786 12.1996 15.0277 11.9618 14.8161C11.7283 14.6083 11.641 14.4864 11.5986 14.3975L10.2444 15.0426C10.4115 15.3935 10.6679 15.6725 10.9645 15.9366C11.257 16.1969 11.6434 16.4889 12.1115 16.8436L13.0173 15.6479ZM10.1486 12.9037C9.89029 13.6003 9.92484 14.3719 10.2444 15.0426L11.5986 14.3975C11.4533 14.0926 11.4376 13.7419 11.555 13.4252L10.1486 12.9037Z" fill="#1C274C"/>
<path d="M5.43568 8.82018L5.06517 8.16809L5.06517 8.16809L5.43568 8.82018ZM3.62949 8.98382C3.26935 9.18844 3.14328 9.64628 3.34791 10.0064C3.55253 10.3666 4.01037 10.4926 4.37051 10.288L3.62949 8.98382ZM13.4066 7.3567L13.1211 8.05024V8.05024L13.4066 7.3567ZM10.4467 6.64241L10.3924 5.89438L10.4467 6.64241ZM21 12.7495C21.4142 12.7495 21.75 12.4138 21.75 11.9995C21.75 11.5853 21.4142 11.2495 21 11.2495V12.7495ZM15.7681 9.53574L15.0973 9.87114V9.87114L15.7681 9.53574ZM5.06517 8.16809L3.62949 8.98382L4.37051 10.288L5.80619 9.47228L5.06517 8.16809ZM13.6921 6.66316C12.3481 6.10991 11.6111 5.80576 10.3924 5.89438L10.5011 7.39043C11.3248 7.33054 11.7575 7.48894 13.1211 8.05024L13.6921 6.66316ZM5.80619 9.47228C8.30813 8.05072 9.35849 7.47352 10.5011 7.39043L10.3924 5.89438C8.83282 6.00778 7.4432 6.81694 5.06517 8.16809L5.80619 9.47228ZM19.7546 12.7495H21V11.2495H19.7546V12.7495ZM15.0973 9.87114C15.9793 11.6352 17.7823 12.7495 19.7546 12.7495V11.2495C18.3505 11.2495 17.0669 10.4562 16.4389 9.20033L15.0973 9.87114ZM16.4389 9.20033C15.8611 8.04461 14.8765 7.1507 13.6921 6.66316L13.1211 8.05024C13.9811 8.40424 14.6864 9.04944 15.0973 9.87114L16.4389 9.20033Z" fill="#1C274C"/>
</svg>