<?xml version="1.0" encoding="UTF-8"?><svg id="Layer_1" xmlns="http://www.w3.org/2000/svg" viewBox="0 0 850.25 200"><defs><style>.cls-1{fill:#001e5f;}</style></defs><path class="cls-1" d="M401.03,167.29c0-21.21,13.75-33.66,30.69-33.66s31.17,11.61,31.17,32.83-13.63,33.54-30.58,33.54-31.29-11.61-31.29-32.71ZM450.33,167.17c0-22.75-7.47-29.98-18.61-29.98-10.55,0-18.01,7.7-18.01,29.39,0,22.75,7.47,30.1,18.61,30.1,10.55,0,18.01-7.94,18.01-29.51Z"/><path class="cls-1" d="M200.7,167.29c0-21.21,13.75-33.66,30.69-33.66s31.17,11.61,31.17,32.83-13.63,33.54-30.58,33.54-31.29-11.61-31.29-32.71ZM250,167.17c0-22.75-7.47-29.98-18.61-29.98-10.55,0-18.01,7.7-18.01,29.39,0,22.75,7.47,30.1,18.61,30.1,10.55,0,18.01-7.94,18.01-29.51Z"/><path class="cls-1" d="M522.61,184.36c.36-.24.83,1.42.47,2.13-2.84,6.52-11.73,13.51-23.7,13.51-16.83,0-29.04-12.8-29.04-31.52,0-22.4,16.83-34.72,32.71-34.72,7.82,0,12.33.95,17.18,2.73.59.24.71,9.24,0,9.24h-.59c-5.45-4.27-9.72-7.94-16.71-7.94-11.61,0-20.98,9.12-20.98,26.55s8.77,27.85,21.33,27.85c8.53.12,15.17-3.79,19.32-7.82Z"/><path class="cls-1" d="M594.76,167.53c0-20.15,11.26-33.89,28.8-33.89,16.59,0,25.84,11.14,25.6,29.86h-42.43c.24,18.72,9.13,28.32,20.74,28.32,12.44,0,17.42-4.38,21.21-8.18.59-.47.71,1.42.36,2.25-2.84,5.93-11.61,14.1-24.53,14.1-18.49,0-29.75-12.8-29.75-32.47ZM606.73,160.18l29.51-1.19c0-14.69-4.39-22.04-13.04-22.04s-15.76,7.11-16.47,23.23Z"/><path class="cls-1" d="M657.8,195.97c-.59-.36-.12-10.31.24-10.31h.71c5.21,6.04,10.07,10.43,18.49,10.43,7.82,0,12.56-2.37,12.56-10.31,0-7.35-6.04-9.95-16.71-14.93-7.11-3.44-14.58-8.18-14.58-18.84,0-12.44,10.67-18.37,21.21-18.37,7.35,0,13.15,1.3,16.71,3.44.36.36.24,9.6,0,9.6h-.59c-3.67-5.81-8.77-9.01-16.35-9.01-6.52,0-11.5,3.44-11.5,9.6,0,7.47,4.5,9.24,12.92,13.39,9.36,4.62,19.08,9.24,19.08,19.67,0,14.1-11.61,19.67-22.75,19.67-8.3,0-14.7-1.54-19.44-4.03Z"/><path class="cls-1" d="M713.84,183.76v-43.49h-9.6v-1.9l19.67-16.24c.36-.47,1.78,0,1.78.47-.24,3.79.12,8.53,0,12.44h18.96c.59,0-.71,5.21-.71,5.21h-18.25v42.78c0,6.28,2.13,10.43,9.01,10.43,4.5,0,8.41-2.13,10.55-3.32.24-.12.59,1.9.36,2.37-2.37,3.91-8.41,7.47-16.24,7.47-11.73,0-15.53-6.28-15.53-16.24Z"/><path class="cls-1" d="M748.95,167.53c0-20.15,11.26-33.89,28.8-33.89,16.59,0,25.84,11.14,25.6,29.86h-42.43c.24,18.72,9.13,28.32,20.74,28.32,12.44,0,17.42-4.38,21.21-8.18.59-.47.71,1.42.36,2.25-2.84,5.93-11.61,14.1-24.53,14.1-18.49,0-29.75-12.8-29.75-32.47ZM760.92,160.18l29.51-1.19c0-14.69-4.39-22.04-13.04-22.04s-15.76,7.11-16.47,23.23Z"/><path class="cls-1" d="M585,195.5v-43.97c0-12.92-6.16-17.78-16.83-17.78-8.18,0-18.01,3.91-23.94,9.72h-.36v-36.38c0-.24-.85-.83-1.08-.83l-17,14.06-.05,1.94c2.37.59,3.79.95,6.16,1.66.12,5.21,0,10.19,0,15.29v43.62c0,4.98.12,8.9,0,12.69h-6.28v2.96h24.87v-2.96h-6.39v-48.71c3.79-3.56,10.67-6.04,17.42-6.04,8.89,0,11.5,4.5,11.5,13.87v28.21c0,4.91,0,8.72-.11,12.69h-6.49v2.96h24.87v-2.96h-6.3Z"/><path class="cls-1" d="M401.86,195.5h-4.91s-1.62-2.05-2.57-3.33c-9.01-13.27-15.64-24.06-22.04-36.62v-.36c11.85-4.74,17.07-12.92,17.07-22.99,0-13.63-9.95-22.64-37.33-22.71h-24.64v2.96h6.39v63.36c0,4.96.27,14.89.05,19.68h-7.08v2.96h28.34v-2.96h-8.4v-37.69c3.2.47,8.41.59,12.8.71,5.83,10.77,13.46,24.3,21.26,36.98h-4.97v2.96h26.75v-2.96h-.73ZM346.75,154.97v-22.75c0-5.1-.36-15.13,0-19.75,22.28,0,29.39,5.53,29.51,22.59,0,17.18-15.76,21.1-29.51,19.91Z"/><path class="cls-1" d="M844.31,133.82c-7.09,0-13.47,6.38-16.54,12.29h-.59l.12-11.82c-.02-.84-1.75-.64-1.86-.64l-16.15,13.53c-.56.43-.06,2.11.05,2.11,2.24.47,3.91.83,6.27,1.65v31.91c0,4.75.1,8.97,0,12.64h-6.39v2.96h25.94v-2.96h-7.5v-45.61c3.55-4.96,8.98-6.5,14.18-6.5,3.43,0,5.91.95,7.8,1.65h.35c.12,0,.47-9.45.12-9.81-1.3-1.06-2.95-1.42-5.79-1.42Z"/><path class="cls-1" d="M500.86,73.85c-3.78,3.78-8.74,8.15-21.15,8.15-11.58,0-20.44-9.57-20.68-28.24h42.3c.24-18.67-8.98-29.78-25.52-29.78-17.49,0-28.71,13.71-28.71,33.79s11.22,32.37,29.66,32.37c12.88,0,21.62-8.15,24.46-14.06.36-.83.24-2.72-.35-2.25ZM475.45,27.3c8.63,0,13,7.33,13,21.98l-29.42,1.18c.71-16.07,7.92-23.16,16.42-23.16Z"/><path class="cls-1" d="M544.34,23.99c-7.09,0-13.47,6.38-16.54,12.29h-.59l.12-11.82c-.02-.84-1.75-.64-1.86-.64l-16.15,13.53c-.56.43-.06,2.11.05,2.11,2.24.47,3.91.83,6.27,1.65v31.91c0,4.75.1,8.97,0,12.64h-6.39v2.96h25.94v-1.62c.05-.24.05-.48,0-.58v-.76h-7.5v-45.61c3.55-4.96,8.98-6.5,14.18-6.5,3.43,0,5.91.95,7.8,1.65h.35c.12,0,.47-9.45.12-9.81-1.3-1.06-2.95-1.42-5.79-1.42Z"/><path class="cls-1" d="M579.32,50.93c-8.39-4.14-12.88-5.91-12.88-13.35,0-6.14,4.96-9.57,11.46-9.57,7.56,0,12.64,3.19,16.31,8.98h.59c.24,0,.35-9.22,0-9.57-3.55-2.13-9.33-3.43-16.66-3.43-10.52,0-21.15,5.91-21.15,18.31,0,10.63,7.44,15.36,14.53,18.79,10.63,4.96,16.66,7.56,16.66,14.89,0,7.92-4.73,10.28-12.52,10.28-8.39,0-13.23-4.37-18.43-10.4h-.71c-.36,0-.83,9.93-.24,10.28,4.73,2.48,11.11,4.02,19.38,4.02,11.11,0,22.69-5.55,22.69-19.61,0-10.4-9.69-15.01-19.02-19.61Z"/><path class="cls-1" d="M345.81,41.83c0-13.12-6.14-17.72-16.66-17.72-8.27,0-18.31,3.9-24.22,9.69h-.35v-9.33c0-.24-.71-.83-.95-.83-6.97,1.89-8.74,2.48-16.78,4.49-.24,0-.24,2.01-.12,2.01,2.36.59,4.04.83,6.28,1.65.12,5.2,0,10.04,0,15.12v26.11c0,4.7.11,8.99,0,12.64h-6.38v2.96h24.76v-1.48c.02-.26.02-.49,0-.65v-.82h-6.34v-48.56c3.9-3.54,10.75-6.03,17.37-6.03,8.86,0,11.46,4.49,11.46,13.82v28.12c0,4.74,0,8.79-.1,12.64h-6.3v2.96h24.63v-2.96h-6.29v-43.83Z"/><path class="cls-1" d="M377.29,34.15c.12-3.54-.12-6.74,0-9.69,0-.24-.71-.83-.83-.83-6.03,1.65-9.45,2.6-17.13,4.49-.35,0-.24,2.01-.12,2.01,2.25.59,4.02.83,6.38,1.65.12,5.2,0,10.04,0,15.12v26.11c0,4.63,0,9-.1,12.64h-6.38v2.41c0,.07,0,.14,0,.19v.35h24.73v-2.96h-6.56v-51.51Z"/><path class="cls-1" d="M371.26,14.65c3.9,0,6.97-3.07,6.97-6.85s-3.07-6.85-6.97-6.85-6.85,3.07-6.85,6.85,3.07,6.85,6.85,6.85Z"/><path class="cls-1" d="M616.86,14.65c3.9,0,6.97-3.07,6.97-6.85s-3.07-6.85-6.97-6.85-6.85,3.07-6.85,6.85,3.07,6.85,6.85,6.85Z"/><path class="cls-1" d="M622.89,34.15c.12-3.54-.12-6.74,0-9.69,0-.24-.71-.83-.83-.83-6.03,1.65-9.45,2.6-17.13,4.49-.35,0-.24,2.01-.12,2.01,2.25.59,3.92.83,6.29,1.65.12,5.2,0,10.04,0,15.12v26.11c0,4.56.09,9.01,0,12.64h-6.41v2.96h24.73v-2.96h-6.53v-51.51Z"/><path class="cls-1" d="M672.64,79.56c-2.13,1.18-6.03,3.31-10.52,3.31-6.85,0-8.98-4.14-8.98-10.4V29.82h18.2c.59,0,1.3-5.2.71-5.2h-18.91c.12-3.9-.24-8.63,0-12.41,0-.47-1.42-.95-1.77-.47-2.72,2.6-13.12,11.34-19.61,16.19-.36.35-.24,1.89,0,1.89h9.57v43.36c0,9.93,3.78,16.19,15.48,16.19,7.8,0,13.82-3.54,16.19-7.44.24-.47-.12-2.48-.35-2.36Z"/><path class="cls-1" d="M261.25,0h-.36v1.29c-.02.32-.03.65,0,.93v.74h1.48c.11,0,.21,0,.31,0h7.07v52.58c0,23.04-12.64,29.42-25.29,29.42-15.01,0-27.08-6.97-27.08-26.94V22.33c0-5.08-.24-14.77,0-19.38h8.62V0h-30.1v2.96h8.48v54.35c0,23.51,16.92,32.49,36.77,32.49,18.79,0,33.2-8.15,33.2-34.5v-31.78c.11-7.1-.23-14.72,0-20.56h9.22V0h-22.34Z"/><path class="cls-1" d="M447.09,28.23v-2.96h-16.92v2.96h7.14c-1.82,5.95-5.19,15.45-8.74,25.89l-6.85,19.5h-.24l-10.52-28.24c-1.95-5.4-4.24-12.31-5.66-17.14h7.53v-2.96h-25.54v2.96h4.35l23.82,61.1h3.78l14.89-40.41c2.74-7.2,5.94-16.05,7.65-20.69h5.33Z"/><path class="cls-1" d="M735.07,25.28h-16.15v2.96h6.6c-1.37,5-2.89,9.98-6.19,20.45-3.07,8.98-5.79,17.25-8.86,26.35h-.24c-3.66-10.87-7.09-21.5-10.63-32.02-1.82-5.12-3.46-10.19-4.95-14.78h7.32v-2.96h-25.34v2.96h4.64l22.46,62.4c-1.18,3.43-2.48,6.62-4.85,9.57-2.13,2.6-4.14,4.73-9.33,4.73-3.31,0-5.79-1.54-8.15-3.31h-.35c-.59,0-.83,6.5,0,6.85,1.18.59,3.9,1.18,6.97,1.18,5.79,0,10.4-2.6,14.06-7.21,2.72-3.54,5.44-8.86,8.51-17.96l13.23-37.46c2.92-8.09,4.91-14.25,6.63-18.8h4.62v-2.96Z"/><path class="cls-1" d="M274.61,140.44h-8.39c-.12,0-.12-2.84,0-2.84l8.39-2.6v-3.19c0-17.01,12.88-25.05,24.34-25.05,5.79,0,7.35.47,9.48,1.3.59.12.47,8.27,0,8.27h-.47c-2.95-2.95-5.11-5.44-9.84-5.44-7.8,0-11.46,4.84-11.46,13.47v10.87h15.95c.47,0-.47,5.2-.83,5.2h-15.12v54.83h7.44v3.18h-25.88v-3.12c-.17,0,6.38,0,6.38,0v-54.89Z"/><path class="cls-1" d="M80.66,136.6c.95.95,2.96,1.7,5.34,1.86,3.38.23,6.21-.81,6.31-2.33.1-1.46-2.38-2.83-5.59-3.13-.17-.04-.34-.07-.53-.06-.08,0-.16,0-.24.01-.72-.03-1.4,0-2.04.08-.29.01-.58.02-.88.03-1.79.07-3.67.14-5.53.25v-4.29l1.26-2.97s-1.47-2.07-2.88-2.07-3.1,2.07-3.1,2.07l1.26,2.97v4.56c-6.99.71-13.03,2.47-13.06,7.61-.03,4.7,5.8,5.84,13.06,5.99v4.42c-5.7.33-8.94,2.51-9.03,6.14-.09,3.63,4.62,4.76,9.03,5.05v5.87c-2.1.41-3.65.58-3.69.58-.95.09-1.65.92-1.56,1.86.09.88,1.18,1.14,2.06,1.14.36,0,1.54-.1,3.19-.4v6.1l1.84,1.54,1.62-1.54v-6.89c.81-.22,1.65-.48,2.51-.78,2.79-.98,4.6-3.31,4.37-5.75-.21-2.22-2.71-4.23-6.88-4.89v-4.75c6.75-.44,10.79-2.63,10.79-6.4s-6.79-4.55-10.79-4.67v-7.02c1.08-.08,2.15-.15,3.17-.2ZM68.57,157.24c.04-1.45,3.11-2.01,5.46-2.2v4.29c-4.68-.39-5.49-1.14-5.46-2.1ZM81.07,164.99c.18.96-1.07,2.07-2.29,2.47-.43.14-.86.27-1.29.39v-4.83c2.24.33,3.43,1.2,3.58,1.98ZM83.92,147.98c.59.5,1.06,1.42-.33,2.21-1.39.78-3.69,1.22-6.09,1.34v-4.33c2.36-.02,5.51,0,6.43.79ZM74.03,143.78c-8.14-.16-9.75-1.94-9.7-3.07.08-1.94,4.61-3,9.7-3.59v6.66Z"/><polygon class="cls-1" points="19.11 23.52 19.2 23.52 23.89 34.2 26.22 34.2 30.91 23.52 30.99 23.52 30.99 34.2 34.24 34.2 34.24 17.61 30.26 17.61 25.07 29.27 25.03 29.27 19.85 17.61 15.86 17.61 15.86 34.2 19.11 34.2 19.11 23.52"/><polygon class="cls-1" points="52.25 31.27 44.26 31.27 44.26 27.31 51.6 27.31 51.6 24.25 44.26 24.25 44.26 20.52 52.03 20.52 52.03 17.61 41.06 17.61 41.06 34.2 52.25 34.2 52.25 31.27"/><polygon class="cls-1" points="68.93 31.27 61.55 31.27 61.55 17.61 58.34 17.61 58.34 34.2 68.93 34.2 68.93 31.27"/><rect class="cls-1" x="74.21" y="17.61" width="3.21" height="16.59"/><path class="cls-1" d="M87.62,33.46c1.29.74,2.72,1.11,4.28,1.11s2.99-.37,4.28-1.12c1.29-.74,2.31-1.77,3.07-3.08.75-1.31,1.13-2.79,1.13-4.44s-.38-3.13-1.13-4.45c-.75-1.32-1.78-2.35-3.07-3.09-1.29-.75-2.72-1.12-4.28-1.12s-2.99.37-4.28,1.11c-1.29.74-2.32,1.77-3.08,3.08-.76,1.32-1.14,2.81-1.14,4.47s.38,3.14,1.14,4.46c.76,1.31,1.78,2.34,3.08,3.07ZM87.44,23.01c.46-.86,1.08-1.54,1.86-2.03.78-.49,1.65-.73,2.62-.73s1.83.25,2.6.76c.77.5,1.38,1.19,1.83,2.05.44.87.67,1.82.67,2.87s-.23,2.05-.68,2.9c-.45.86-1.07,1.53-1.84,2.02-.77.49-1.63.73-2.58.73s-1.82-.24-2.6-.72c-.79-.48-1.41-1.15-1.87-2.01-.46-.86-.69-1.83-.69-2.93s.23-2.05.69-2.91Z"/><path class="cls-1" d="M108.6,28.27h1.94l3.96,5.94h3.62s-3.48-5.12-4.2-6.17v-.02c.7-.18,1.33-.48,1.89-.88.56-.4,1.02-.95,1.37-1.65.35-.7.53-1.54.53-2.53,0-1.47-.37-2.61-1.11-3.4-.74-.8-1.54-1.32-2.39-1.56-.85-.25-1.63-.37-2.34-.37h-6.48v16.59h3.21v-5.94ZM108.6,20.48h2.73c.76,0,1.45.2,2.08.6.62.4.94,1.04.94,1.94,0,.62-.16,1.12-.48,1.48-.32.36-.71.61-1.15.76s-.92.21-1.42.21h-2.69v-4.98Z"/><path class="cls-1" d="M126.95,29.82h6.32l1.65,4.28h3.37l-6.28-16.35h-3.69l-6.28,16.35h3.27l1.63-4.28ZM130.11,21.49h.04l1.99,5.3h-4.07l2.04-5.3Z"/><path class="cls-1" d="M151.7,115.87V0H0v115.87c.03,1.52-.77,15.7,11.06,29.7,8.54,10.11,61.49,50.17,63.73,51.88l1.05.8,1.05-.8c2.24-1.71,55.08-41.87,63.73-51.88,11.68-13.52,11.08-28.24,11.07-29.7ZM148.25,3.41v44.27H3.45V3.41h144.8ZM13.68,143.33c-11.05-13.22-10.07-26.28-10.23-27.19V51.1h70.68v53.29l-55.39,43.85c-2.26-2.03-4.04-3.68-5.06-4.91ZM75.85,193.94c-6.25-4.78-38.63-29.62-54.5-43.4l54.5-43.15,54.5,43.15c-15.87,13.78-48.25,38.62-54.5,43.4ZM138.03,143.33c-1.08,1.17-2.8,2.88-5.06,4.91l-55.39-43.85v-53.29h70.67v64.85s.44,15.81-10.22,27.38Z"/><path class="cls-1" d="M36.84,102.46v.34h3.79v-.34c.26-.63,1.25-2.6,3.56-2.6h15.25v-31.6h-15.56c-1.66,0-3.69.67-5.14,1.86-1.45-1.19-3.48-1.86-5.14-1.86h-15.56v31.6h15.25c2.31,0,3.3,1.97,3.56,2.6ZM43.87,71.67h11.77v24.76h-11.46c-1.4,0-2.58.34-3.56.86v-23.56c0-1.19,2.14-2.06,3.25-2.06ZM21.81,71.67h11.77c1.11,0,3.25.87,3.25,2.06v23.56c-.98-.52-2.16-.86-3.56-.86h-11.46v-24.76Z"/><path class="cls-1" d="M125.67,66.91c-2.38,0-4.04,1.68-4.04,4.1,0,.64.02,1.6.05,2.25h-1v-2.31h-2.93v2.31h-1.91v-2.31h-2.93v2.31h-1.91v-2.31h-2.93v2.31h-1.07c.03-.65.05-1.61.05-2.25,0-2.41-1.66-4.1-4.05-4.1s-4.04,1.68-4.04,4.1h2.93c0-.72.5-1.3,1.12-1.3s1.12.58,1.12,1.3c0,4.71-1.19,7.89-2.35,10.95-1.05,2.79-2.04,5.42-2.04,8.84,0,1.88.43,3.71,1.27,5.43.78,1.6,1.89,3.05,3.28,4.29.22.19.45.39.69.57h-3.05l.04,3.04h24.74l-.04-3.04h-2.98c.24-.19.47-.38.69-.57,1.4-1.24,2.5-2.69,3.28-4.29.84-1.73,1.27-3.56,1.27-5.43,0-3.39-.98-5.94-2.01-8.65-1.17-3.05-2.38-6.2-2.38-11.15,0-.72.5-1.3,1.12-1.3s1.12.58,1.12,1.3h2.93c0-2.41-1.66-4.1-4.05-4.1ZM108.07,99.38c-3.34-1.96-5.4-5.22-5.4-8.58,0-2.76.84-4.99,1.81-7.57.77-2.03,1.63-4.34,2.13-7.13h1.45v23.28ZM111,100.63v-24.53h1.91v24.92c-.64-.08-1.29-.21-1.91-.38ZM115.84,101.01v-24.91h1.91v24.51c-.63.18-1.27.31-1.91.39ZM122.05,76.1c.51,2.95,1.4,5.29,2.19,7.35.95,2.49,1.78,4.63,1.78,7.35,0,3.32-2.04,6.57-5.34,8.54v-23.24h1.37Z"/></svg>